<?xml version="1.0" encoding="UTF-8" standalone="no"?>
<svg xmlns="http://www.w3.org/2000/svg" version="1" viewBox="0 0 282 395">
	<g id="qrcode">
		<rect id="qrcode_frame_b" fill="#000" width="282" height="282" x="0"  y="0"  ry="20" />
		<rect id="qrcode_frame_w" fill="#fff" width="250" height="250" x="16" y="16" ry="8"/>
		<path id="qrcode_bitmap"  fill="#000" d="m 63.906181,195.90942 h 22.02681 v 22.02681 h -22.02681 z m 66.080429,14.68454 h 14.68454 v 7.34227 h -7.34227 v 14.68452 H 107.9598 v -7.34227 h 14.68454 v -7.34225 h 7.34227 z m 36.71135,0 h 7.34227 v 7.34227 h 7.34227 v 7.34225 h -29.36908 v -7.34225 h 14.68454 z M 93.275261,151.8558 H 107.9598 v 7.34227 h 7.34227 v 7.34227 h -14.68454 v -7.34227 h -7.342269 z m 22.026809,14.68454 h 7.34227 v 14.68454 h 7.34227 v 14.68454 h -7.34227 v 7.34227 h 7.34227 v 7.34227 h -14.68454 v 7.34227 h -7.34227 v -29.36908 h 7.34227 v -7.34227 h -7.34227 v -7.34227 h 7.34227 z m 95.44951,0 h 7.34227 v 7.34227 h -7.34227 z m -73.4227,7.34227 h 14.68454 v 7.34227 h 7.34227 v 7.34227 h -7.34227 v 7.34227 h -7.34227 v 7.34227 h -7.34227 v -14.68454 h 7.34227 v -7.34227 h -7.34227 z m -88.107259,7.34227 h 51.395909 v 51.39587 H 49.221621 v -51.39587 m 7.342291,7.34227 v 36.71133 H 93.275261 V 188.56715 Z M 181.3825,181.22488 h 7.34227 v 7.34227 H 181.3825 Z M 137.32888,93.117639 h 7.34227 v 14.684541 h -7.34227 z M 49.221621,107.80218 h 7.342291 v 7.34227 h -7.342291 z m 14.68456,0 h 36.711349 v 7.34227 h -7.342269 v 7.34227 H 107.9598 v 7.34227 H 93.275261 v 7.34227 h -7.34227 v -7.34227 h -14.68454 v -14.68454 h -7.34227 v -7.34227 m 14.68454,7.34227 v 7.34227 h 7.34227 v -7.34227 z m 66.080429,-7.34227 h 14.68454 v 7.34227 h -14.68454 z m 36.71135,0 h 36.71135 v 7.34227 h -22.02681 v 7.34227 h 14.68454 v 7.34227 h -14.68454 v 7.34227 h -7.34227 v 7.34227 h -14.68454 v 14.68454 h 14.68454 v -14.68454 h 7.34227 v 7.34227 h 7.34227 v -7.34227 h 7.34227 v 14.68454 h -7.34227 v 14.68454 h 7.34227 v 7.34227 h -7.34227 v 7.34227 h 7.34227 v 7.34227 h -7.34227 v 7.34227 h 7.34227 v -7.34227 h 7.34227 v -7.34227 h -7.34227 v -7.34227 h 22.02681 v 51.39587 H 181.3825 v -7.34227 h 7.34227 v -7.34225 h 14.68454 v -7.34227 h -7.34227 v -7.34227 h -7.34227 v 7.34227 h -14.68454 v -7.34227 h -7.34227 v 7.34227 h -7.34227 v -7.34227 h -7.34227 v -7.34227 h 14.68454 v -14.68454 h -7.34227 v -22.02681 h -22.02681 v 14.68454 h -7.34227 V 151.8558 h 22.02681 v -7.34227 h -14.68454 v -7.34227 h 14.68454 v -14.68454 h 14.68454 v 7.34227 h -7.34227 v 7.34227 h 14.68454 v -14.68454 h -7.34227 v -7.34227 h 14.68454 v 7.34227 h 7.34227 v -7.34227 h -7.34227 v -7.34227 m -22.02681,36.71135 v 7.34227 h 7.34227 v -7.34227 h -7.34227 m 14.68454,29.36908 v 22.02681 h 22.02681 v -22.02681 h -22.02681 m 44.05362,36.71135 v 7.34227 h -7.34227 v 7.34225 h 14.68454 V 210.59396 Z M 49.221804,49.063873 V 100.45999 H 100.61728 V 49.063873 Z m 73.422326,0 v 7.342499 h 7.34248 v 14.684311 h 7.34245 V 56.406372 h 7.34184 v 7.342489 h 22.02681 v 7.341822 h 7.34252 V 56.406372 h -22.02681 v -7.342499 z m 0,7.342499 h -7.34188 v 7.342489 h -7.34245 v 44.053619 h 7.34245 v 14.68432 h 7.34188 v -7.34249 h 7.34248 V 85.775672 h 14.68429 v -7.34249 h -22.02677 v 7.34249 h -7.34188 V 71.090683 h 7.34188 z m 22.02677,22.02681 h 14.68497 V 71.090683 H 144.6709 Z m 36.71177,-29.369309 v 51.396117 h 51.39547 V 49.063873 Z M 56.563665,56.406372 H 93.275437 V 93.117497 H 56.563665 Z m 132.160855,0 h 36.71177 V 93.117497 H 188.72452 Z M 63.906181,63.748861 v 22.026811 h 22.02681 V 63.748861 Z m 132.160859,0 v 22.026811 h 22.02681 V 63.748861 Z m -29.36933,14.684321 v 7.34249 h -14.68429 v 14.684318 h 7.34245 v -7.342493 h 7.34184 v 7.342493 h -7.34184 v 7.34249 h 14.68436 V 78.433182 Z m -51.39546,14.684315 h 7.34184 v 7.342493 h -7.34184 z m 22.02663,22.026953 h 7.34227 v 14.68454 h -22.02681 v -7.34227 h 14.68454 z m 80.76497,0 h 7.34227 v 7.34227 h 7.34227 v 22.02681 h -7.34227 v 7.34227 h 7.34227 v 14.68454 h -7.34227 v -7.34227 h -7.34227 v -14.68454 h -7.34227 v -7.34227 h 14.68454 v -7.34227 h -7.34227 z m -168.872229,7.34227 h 14.68456 v 7.34227 h -14.68456 z m 14.68456,7.34227 h 7.34227 v 7.34227 h -7.34227 z m 44.053619,0 h 14.68454 v 7.34227 h 7.34227 v 7.34227 h -7.34227 v 7.34227 H 107.9598 v -7.34227 h 7.34227 v -7.34227 h -7.34227 z m -51.395888,7.34227 h 7.342269 v 7.34227 h -7.342269 z m 22.026809,0 h 7.34227 v 22.02681 h -7.34227 v 7.34227 h 7.34227 v -7.34227 h 7.34227 v 7.34227 h 7.342269 v 7.34227 H 63.906181 v -7.34227 h 7.34227 V 151.8558 h -7.34227 v -7.34227 h 14.68454 z m 14.68454,0 h 7.342269 v 7.34227 h -7.342269 z m 102.791779,0 h 7.34227 v 7.34227 h -7.34227 z m -146.845419,7.34227 h 7.342291 v 29.36908 h -7.342291 z"/>
	</g>
	<g id="bubble_phone">
		<g id="bubble">
			<rect id="bubble_head"  fill="#000" width="75"  height="75" x="303" y="104" transform="rotate(45)"/>
			<rect id="bubble_body"  fill="#000" width="282" height="78" x="0"   y="317" ry="12"/>
			<text id="bubble_text"  fill="#fff" x="70" y="370" font-family="sans-serif" font-size="40" font-weight="700">Scan me</text>
		</g>
		<g id="phone">
			<rect id="phone_back"   fill="#fff" width="30"  height="48" x="24"  y="332" ry="7" />
			<rect id="phone_body"   fill="#000" width="22"  height="42" x="28"  y="335" ry="3" />
			<rect id="phone_camera" fill="#fff" width="6"   height="1"  x="36"  y="337" ry="1" />
			<rect id="phone_screen" fill="#fff" width="20"  height="33" x="29"  y="340" />
		</g>
	</g>
</svg>